<svg width="624" height="665" viewBox="0 0 624 665" fill="none" xmlns="http://www.w3.org/2000/svg">
<rect width="624" height="665" fill="#0B1120"/>
<path d="M349.35 192.041C351.337 191.365 353.229 193.293 352.566 195.319L347.404 211.109C346.205 214.779 347.834 218.788 351.228 220.518L365.837 227.963C367.711 228.918 367.711 231.646 365.837 232.602L351.228 240.046C347.834 241.776 346.205 245.785 347.404 249.455L352.566 265.246C353.229 267.272 351.337 269.199 349.35 268.524L333.856 263.263C330.255 262.04 326.322 263.701 324.624 267.161L317.319 282.049C316.382 283.959 313.705 283.959 312.768 282.049L305.464 267.161C303.766 263.701 299.832 262.04 296.232 263.263L280.738 268.524C278.75 269.199 276.858 267.272 277.521 265.246L282.683 249.455C283.883 245.785 282.254 241.776 278.859 240.046L264.25 232.602C262.376 231.646 262.376 228.918 264.25 227.963L278.859 220.518C282.254 218.788 283.883 214.779 282.683 211.109L277.521 195.319C276.858 193.293 278.75 191.365 280.738 192.041L296.232 197.301C299.832 198.524 303.766 196.863 305.464 193.404L312.768 178.515C313.705 176.606 316.382 176.606 317.319 178.515L324.624 193.404C326.322 196.863 330.255 198.524 333.856 197.301L349.35 192.041Z" fill="#22D3EE"/>
<path d="M315.202 98.1167V162.904Z" fill="#22D3EE"/>
<path d="M315.202 98.1167V162.904" stroke="#22D3EE" stroke-width="17" stroke-linecap="round"/>
<path d="M376.07 116.257L340.471 173.27Z" fill="#22D3EE"/>
<path d="M376.07 116.257L340.471 173.27" stroke="#22D3EE" stroke-width="17" stroke-linecap="round"/>
<path d="M421.6 162.904L365.899 194.127Z" fill="#22D3EE"/>
<path d="M421.6 162.904L365.899 194.127" stroke="#22D3EE" stroke-width="17" stroke-linecap="round"/>
<path d="M447.268 225.1H381.156Z" fill="#22D3EE"/>
<path d="M447.268 225.1H381.156" stroke="#22D3EE" stroke-width="17" stroke-linecap="round"/>
<path d="M259.103 339.126L285.407 280.146Z" fill="#22D3EE"/>
<path d="M259.103 339.126L285.407 280.146" stroke="#22D3EE" stroke-width="17" stroke-linecap="round"/>
<path d="M187.906 225.1H251.475Z" fill="#22D3EE"/>
<path d="M187.906 225.1H251.475" stroke="#22D3EE" stroke-width="17" stroke-linecap="round"/>
<path d="M254.018 116.257L284.457 173.134Z" fill="#22D3EE"/>
<path d="M254.018 116.257L284.457 173.134" stroke="#22D3EE" stroke-width="17" stroke-linecap="round"/>
<path d="M208.25 162.904L262.76 196.237Z" fill="#22D3EE"/>
<path d="M208.25 162.904L262.76 196.237" stroke="#22D3EE" stroke-width="17" stroke-linecap="round"/>
<path d="M371.865 341.093L345.561 282.113Z" fill="#22D3EE"/>
<path d="M371.865 341.093L345.561 282.113" stroke="#22D3EE" stroke-width="17" stroke-linecap="round"/>
<path d="M361.096 30.5697C364.868 25.4586 362.226 18.1057 356.05 16.9697C331.253 12.4076 304.631 11.016 277.458 12.8896C245.448 15.0967 213.409 21.7841 183.476 32.5061C153.543 43.2286 126.403 57.7389 103.865 75.0713C86.0061 88.8052 71.3613 104.06 60.5083 120.182C56.4724 126.177 60.3618 134.051 67.4337 135.009L68.8785 135.204C73.0537 135.77 77.1064 133.634 79.3242 129.985C89.2415 113.667 103.49 98.2315 121.343 84.5023C141.427 69.0575 165.611 56.127 192.284 46.5727C218.958 37.0184 247.508 31.059 276.031 29.0923C302.499 27.2673 328.38 28.9187 352.192 33.9366C355.553 34.6446 359.034 33.3649 361.096 30.5697Z" fill="#22D3EE"/>
<path d="M192.118 97.8634C190.311 93.5973 185.5 91.5536 181.307 93.3785C146.202 108.656 114.439 130.437 87.7952 157.539C59.2491 186.575 37.2029 221.084 23.0552 258.875C8.90755 296.667 2.96764 336.915 5.61254 377.065C8.072 414.4 17.9046 450.891 34.5401 484.541C36.6424 488.794 41.7344 490.426 45.919 488.308C50.3203 486.081 52.017 480.582 49.8244 476.1C34.4709 444.714 25.3893 410.73 23.0994 375.969C20.6103 338.183 26.2003 300.306 39.5147 264.74C52.8292 229.175 73.5771 196.698 100.441 169.372C125.283 144.104 154.852 123.751 187.524 109.394C191.897 107.473 194.006 102.319 192.118 97.8634Z" fill="#22D3EE"/>
<path d="M174.481 617.452C140.898 601.817 110.993 580.713 86.3564 555.263L100.194 544.891C123.339 568.799 151.432 588.627 182.981 603.313L174.481 617.452Z" fill="#22D3EE"/>
<path d="M283.767 75.9906C283.146 71.2772 286.418 66.9421 291.063 66.4845C342.417 61.4254 394.27 69.4818 441.505 89.9297C491.323 111.496 534.086 146.015 565.123 189.716C596.16 233.418 614.27 284.619 617.484 337.726C620.525 388.025 610.089 438.2 587.276 483.334C585.14 487.559 580.044 489.147 575.884 487C571.5 484.739 569.848 479.225 572.08 474.764C593.19 432.555 602.832 385.714 599.989 338.76C596.969 288.781 579.922 240.594 550.716 199.467C521.507 158.34 481.262 125.853 434.378 105.558C390.028 86.3591 341.352 78.7676 293.132 83.4608C288.55 83.9066 284.378 80.6402 283.767 75.9906Z" fill="#22D3EE"/>
<path d="M570 497L580.5 481.5V477L570 488V497Z" fill="#22D3EE" stroke="#22D3EE" stroke-width="13"/>
<path d="M209.799 634.851C254.671 650.955 302.862 656.273 350.287 650.349C397.712 644.419 442.975 627.435 482.242 600.82L472.244 586.779C435.29 611.823 392.693 627.813 348.062 633.39C303.429 638.967 258.078 633.965 215.848 618.81L209.799 634.851Z" fill="#22D3EE"/>
<path d="M371.157 47.2809C380.987 47.2809 388.956 39.1591 388.956 29.1404C388.956 19.1218 380.987 11 371.157 11C361.326 11 353.357 19.1218 353.357 29.1404C353.357 39.1591 361.326 47.2809 371.157 47.2809Z" fill="#22D3EE"/>
<path d="M60.94 150.94C70.7703 150.94 78.7393 142.818 78.7393 132.8C78.7393 122.781 70.7703 114.659 60.94 114.659C51.1097 114.659 43.1406 122.781 43.1406 132.8C43.1406 142.818 51.1097 150.94 60.94 150.94Z" fill="#22D3EE"/>
<path d="M45.8433 247.015C55.6736 247.015 63.6426 238.893 63.6426 228.874C63.6426 218.856 55.6736 210.734 45.8433 210.734C36.013 210.734 28.0439 218.856 28.0439 228.874C28.0439 238.893 36.013 247.015 45.8433 247.015Z" fill="#22D3EE"/>
<path d="M488.114 144.538C497.944 144.538 505.913 136.416 505.913 126.398C505.913 116.379 497.944 108.257 488.114 108.257C478.283 108.257 470.314 116.379 470.314 126.398C470.314 136.416 478.283 144.538 488.114 144.538Z" fill="#22D3EE"/>
<path d="M472.697 619.007C482.527 619.007 490.496 610.885 490.496 600.867C490.496 590.848 482.527 582.726 472.697 582.726C462.866 582.726 454.897 590.848 454.897 600.867C454.897 610.885 462.866 619.007 472.697 619.007Z" fill="#22D3EE"/>
<path d="M208.249 284.704L157.394 258.789Z" fill="#22D3EE"/>
<path d="M208.249 284.704L157.394 258.789" stroke="#22D3EE" stroke-width="17" stroke-linecap="round"/>
<path d="M101.612 249.46L101.611 493.06Z" fill="#22D3EE"/>
<path d="M101.612 249.46L101.611 493.06" stroke="#22D3EE" stroke-width="17" stroke-linecap="round"/>
<path d="M157.394 258.789L157.394 460.925Z" fill="#22D3EE"/>
<path d="M157.394 258.789L157.394 460.925" stroke="#22D3EE" stroke-width="17" stroke-linecap="round"/>
<path d="M315.047 429.828L238.764 497.207Z" fill="#22D3EE"/>
<path d="M315.047 429.828L238.764 497.207" stroke="#22D3EE" stroke-width="17" stroke-linecap="round"/>
<path d="M157.394 460.926L238.761 497.207Z" fill="#22D3EE"/>
<path d="M157.394 460.926L238.761 497.207" stroke="#22D3EE" stroke-width="17" stroke-linecap="round"/>
<path d="M55.6846 305.437V538.671Z" fill="#22D3EE"/>
<path d="M55.6846 305.437V538.671" stroke="#22D3EE" stroke-width="17" stroke-linecap="round"/>
<path d="M211.224 287.749L254.016 263.973Z" fill="#22D3EE"/>
<path d="M211.224 287.749L254.016 263.973" stroke="#22D3EE" stroke-width="17" stroke-linecap="round"/>
<path d="M256.802 442.374L282.229 400.91" stroke="#22D3EE" stroke-width="17"/>
<path d="M322.203 354.256C324.882 350.056 323.714 344.438 319.593 341.708C315.472 338.978 309.96 340.169 307.28 344.369L314.742 349.312L322.203 354.256ZM291.31 386.043L298.772 390.987L322.203 354.256L314.742 349.312L307.28 344.369L283.849 381.099L291.31 386.043Z" fill="#22D3EE"/>
<path d="M102.601 493.061L314.187 599.312" stroke="#22D3EE" stroke-width="17" stroke-linecap="round"/>
<path d="M55.8447 539.707L313 601" stroke="#22D3EE" stroke-width="17" stroke-linecap="round"/>
<path d="M323.947 429.828C323.947 424.819 319.962 420.758 315.047 420.758C310.132 420.758 306.147 424.819 306.147 429.828H315.047H323.947ZM306.147 510.164V519.235H323.947V510.164H315.047H306.147ZM315.047 429.828H306.147V510.164H315.047H323.947V429.828H315.047Z" fill="#22D3EE"/>
<path d="M467.46 258.707L410.929 282.752Z" fill="#22D3EE"/>
<path d="M467.46 258.707L410.929 282.752" stroke="#22D3EE" stroke-width="17" stroke-linecap="round"/>
<path d="M467.478 258.742L467.478 459.965Z" fill="#22D3EE"/>
<path d="M467.478 258.742L467.478 459.965" stroke="#22D3EE" stroke-width="17" stroke-linecap="round"/>
<path d="M371.288 496.083L467.476 459.966Z" fill="#22D3EE"/>
<path d="M371.288 496.083L467.476 459.966" stroke="#22D3EE" stroke-width="17"/>
<path d="M568.729 305.179V537.359Z" fill="#22D3EE"/>
<path d="M568.729 305.179V537.359" stroke="#22D3EE" stroke-width="17" stroke-linecap="round"/>
<path d="M523.166 248.423V496.082Z" fill="#22D3EE"/>
<path d="M523.166 248.423V496.082" stroke="#22D3EE" stroke-width="17" stroke-linecap="round"/>
<path d="M371.473 262.022L406.731 284.54Z" fill="#22D3EE"/>
<path d="M371.473 262.022L406.731 284.54" stroke="#22D3EE" stroke-width="17" stroke-linecap="round"/>
<path d="M372.579 441.233L347.46 400.168Z" fill="#22D3EE"/>
<path d="M372.579 441.233L347.46 400.168" stroke="#22D3EE" stroke-width="17"/>
<path d="M323.792 342.812C321.259 338.545 315.811 337.18 311.625 339.762C307.439 342.344 306.099 347.895 308.633 352.161L316.212 347.486L323.792 342.812ZM339.572 386.827L347.152 382.152L323.792 342.812L316.212 347.486L308.633 352.161L331.992 391.501L339.572 386.827Z" fill="#22D3EE"/>
<path d="M315.759 598.21L523.323 497.114" stroke="#22D3EE" stroke-width="17" stroke-linecap="round"/>
<path d="M315.435 603.055L568.176 538" stroke="#22D3EE" stroke-width="17" stroke-linecap="round"/>
<path d="M39.5 479.5C39.5 479.5 42.9288 485.669 45.587 489.306C48.3834 493.133 53.5 498.5 53.5 498.5" stroke="#22D3EE" stroke-width="13"/>
</svg>
