<?xml version="1.0" encoding="UTF-8"?>
<svg xmlns="http://www.w3.org/2000/svg" width="613" height="642" viewBox="0 0 613 642" fill="none" style="background: transparent;">

<g id="Group 75">
<g id="logo_animation-BIG">
<g id="star">
<path id="Vector" d="M344.35 181.041C346.337 180.365 348.229 182.293 347.566 184.319L342.404 200.109C341.205 203.779 342.834 207.788 346.228 209.518L360.837 216.963C362.711 217.918 362.711 220.646 360.837 221.602L346.228 229.046C342.834 230.776 341.205 234.785 342.404 238.455L347.566 254.246C348.229 256.272 346.337 258.199 344.35 257.524L328.856 252.263C325.255 251.04 321.322 252.701 319.624 256.161L312.319 271.049C311.382 272.959 308.705 272.959 307.768 271.049L300.464 256.161C298.766 252.701 294.832 251.04 291.232 252.263L275.738 257.524C273.75 258.199 271.858 256.272 272.521 254.246L277.683 238.455C278.883 234.785 277.254 230.776 273.859 229.046L259.25 221.602C257.376 220.646 257.376 217.918 259.25 216.963L273.859 209.518C277.254 207.788 278.883 203.779 277.683 200.109L272.521 184.319C271.858 182.293 273.75 180.365 275.738 181.041L291.232 186.301C294.832 187.524 298.766 185.863 300.464 182.404L307.768 167.515C308.705 165.606 311.382 165.606 312.319 167.515L319.624 182.404C321.322 185.863 325.255 187.524 328.856 186.301L344.35 181.041Z" fill="#22D3EE"/>
<g id="Vector_2">
<path d="M310.202 87.1167V151.904V87.1167Z" fill="#22D3EE"/>
<path d="M310.202 87.1167V151.904" stroke="#22D3EE" stroke-width="17" stroke-linecap="round"/>
</g>
<g id="Vector_3">
<path d="M371.07 105.257L335.471 162.27L371.07 105.257Z" fill="#22D3EE"/>
<path d="M371.07 105.257L335.471 162.27" stroke="#22D3EE" stroke-width="17" stroke-linecap="round"/>
</g>
<g id="Vector_4">
<path d="M416.6 151.904L360.899 183.127L416.6 151.904Z" fill="#22D3EE"/>
<path d="M416.6 151.904L360.899 183.127" stroke="#22D3EE" stroke-width="17" stroke-linecap="round"/>
</g>
<g id="Vector_5">
<path d="M442.268 214.1H376.156H442.268Z" fill="#22D3EE"/>
<path d="M442.268 214.1H376.156" stroke="#22D3EE" stroke-width="17" stroke-linecap="round"/>
</g>
<g id="Vector_6">
<path d="M254.103 328.126L280.407 269.146L254.103 328.126Z" fill="#22D3EE"/>
<path d="M254.103 328.126L280.407 269.146" stroke="#22D3EE" stroke-width="17" stroke-linecap="round"/>
</g>
<g id="Vector_7">
<path d="M182.906 214.1H246.475H182.906Z" fill="#22D3EE"/>
<path d="M182.906 214.1H246.475" stroke="#22D3EE" stroke-width="17" stroke-linecap="round"/>
</g>
<g id="Vector_8">
<path d="M249.018 105.257L279.457 162.134L249.018 105.257Z" fill="#22D3EE"/>
<path d="M249.018 105.257L279.457 162.134" stroke="#22D3EE" stroke-width="17" stroke-linecap="round"/>
</g>
<g id="Vector_9">
<path d="M203.25 151.904L257.76 185.237L203.25 151.904Z" fill="#22D3EE"/>
<path d="M203.25 151.904L257.76 185.237" stroke="#22D3EE" stroke-width="17" stroke-linecap="round"/>
</g>
<g id="Vector_10">
<path d="M366.865 330.093L340.561 271.113L366.865 330.093Z" fill="#22D3EE"/>
<path d="M366.865 330.093L340.561 271.113" stroke="#22D3EE" stroke-width="17" stroke-linecap="round"/>
</g>
</g>
<g id="orbits">
<path id="Vector_11" d="M356.096 19.5697C359.868 14.4586 357.226 7.10568 351.05 5.96967C326.253 1.40761 299.631 0.0160271 272.458 1.88962C240.448 4.09669 208.409 10.7841 178.476 21.5061C148.543 32.2286 121.403 46.7389 98.8649 64.0714C81.0061 77.8052 66.3613 93.0603 55.5083 109.182C51.4724 115.177 55.3618 123.051 62.4337 124.009L63.8785 124.204C68.0537 124.77 72.1064 122.634 74.3242 118.985C84.2415 102.667 98.4901 87.2315 116.343 73.5023C136.427 58.0575 160.611 45.127 187.284 35.5727C213.958 26.0184 242.508 20.059 271.031 18.0923C297.499 16.2673 323.38 17.9187 347.192 22.9366C350.553 23.6446 354.034 22.3649 356.096 19.5697Z" fill="#22D3EE"/>
<path id="Vector_12" d="M187.118 86.8634C185.311 82.5973 180.5 80.5536 176.307 82.3785C141.202 97.6559 109.439 119.437 82.7952 146.539C54.2491 175.575 32.2029 210.084 18.0552 247.875C3.90755 285.667 -2.03236 325.915 0.612537 366.065C3.072 403.4 12.9046 439.891 29.5401 473.541C31.6424 477.794 36.7344 479.426 40.919 477.308C45.3203 475.081 47.017 469.582 44.8244 465.1C29.4709 433.714 20.3893 399.73 18.0994 364.969C15.6103 327.183 21.2003 289.306 34.5147 253.74C47.8292 218.175 68.5771 185.698 95.4414 158.372C120.283 133.104 149.852 112.751 182.524 98.394C186.897 96.4726 189.006 91.3192 187.118 86.8634Z" fill="#22D3EE"/>
<path id="Vector_13" d="M169.481 606.452C135.898 590.817 105.993 569.713 81.3564 544.263L95.1936 533.891C118.339 557.799 146.432 577.627 177.981 592.313L169.481 606.452Z" fill="#22D3EE"/>
<path id="Vector_14" d="M278.767 64.9906C278.146 60.2772 281.418 55.9421 286.063 55.4845C337.417 50.4254 389.27 58.4818 436.505 78.9297C486.323 100.496 529.086 135.015 560.123 178.716C591.16 222.418 609.27 273.619 612.484 326.726C615.525 377.025 605.089 427.2 582.276 472.334C580.14 476.559 575.044 478.147 570.884 476C566.5 473.739 564.848 468.225 567.08 463.764C588.19 421.555 597.832 374.714 594.989 327.76C591.969 277.781 574.922 229.594 545.716 188.467C516.507 147.34 476.262 114.853 429.378 94.558C385.028 75.3591 336.352 67.7676 288.132 72.4608C283.55 72.9066 279.378 69.6402 278.767 64.9906Z" fill="#22D3EE"/>
<path id="Vector 2" d="M565 486L575.5 470.5V466L565 477V486Z" fill="#22D3EE" stroke="#22D3EE" stroke-width="13"/>
<path id="Vector_15" d="M204.799 623.851C249.671 639.955 297.862 645.273 345.287 639.349C392.712 633.419 437.975 616.435 477.242 589.82L467.244 575.779C430.29 600.823 387.693 616.813 343.062 622.39C298.429 627.967 253.078 622.965 210.848 607.81L204.799 623.851Z" fill="#22D3EE"/>
</g>
<g id="patical">
<path id="Vector_16" d="M366.157 36.2809C375.987 36.2809 383.956 28.1591 383.956 18.1404C383.956 8.12176 375.987 0 366.157 0C356.326 0 348.357 8.12176 348.357 18.1404C348.357 28.1591 356.326 36.2809 366.157 36.2809Z" fill="#22D3EE"/>
<path id="Vector_17" d="M55.94 139.94C65.7703 139.94 73.7393 131.818 73.7393 121.8C73.7393 111.781 65.7703 103.659 55.94 103.659C46.1097 103.659 38.1406 111.781 38.1406 121.8C38.1406 131.818 46.1097 139.94 55.94 139.94Z" fill="#22D3EE"/>
<path id="Vector_18" d="M40.8433 236.015C50.6736 236.015 58.6426 227.893 58.6426 217.874C58.6426 207.856 50.6736 199.734 40.8433 199.734C31.013 199.734 23.0439 207.856 23.0439 217.874C23.0439 227.893 31.013 236.015 40.8433 236.015Z" fill="#22D3EE"/>
<path id="Vector_19" d="M483.114 133.538C492.944 133.538 500.913 125.416 500.913 115.398C500.913 105.379 492.944 97.2573 483.114 97.2573C473.283 97.2573 465.314 105.379 465.314 115.398C465.314 125.416 473.283 133.538 483.114 133.538Z" fill="#22D3EE"/>
<path id="Vector_20" d="M467.697 608.007C477.527 608.007 485.496 599.885 485.496 589.867C485.496 579.848 477.527 571.726 467.697 571.726C457.866 571.726 449.897 579.848 449.897 589.867C449.897 599.885 457.866 608.007 467.697 608.007Z" fill="#22D3EE"/>
</g>
<g id="left_side">
<g id="Vector_21">
<path d="M203.249 273.704L152.394 247.789L203.249 273.704Z" fill="#22D3EE"/>
<path d="M203.249 273.704L152.394 247.789" stroke="#22D3EE" stroke-width="17" stroke-linecap="round"/>
</g>
<g id="Vector_22">
<path d="M96.6118 238.46L96.6113 482.06L96.6118 238.46Z" fill="#22D3EE"/>
<path d="M96.6118 238.46L96.6113 482.06" stroke="#22D3EE" stroke-width="17" stroke-linecap="round"/>
</g>
<g id="Vector_23">
<path d="M152.394 247.789L152.394 449.925L152.394 247.789Z" fill="#22D3EE"/>
<path d="M152.394 247.789L152.394 449.925" stroke="#22D3EE" stroke-width="17" stroke-linecap="round"/>
</g>
<g id="Vector_24">
<path d="M310.047 418.828L233.764 486.207L310.047 418.828Z" fill="#22D3EE"/>
<path d="M310.047 418.828L233.764 486.207" stroke="#22D3EE" stroke-width="17" stroke-linecap="round"/>
</g>
<g id="Vector_25">
<path d="M152.394 449.926L233.761 486.207L152.394 449.926Z" fill="#22D3EE"/>
<path d="M152.394 449.926L233.761 486.207" stroke="#22D3EE" stroke-width="17" stroke-linecap="round"/>
</g>
<g id="Vector_26">
<path d="M50.6846 294.437V527.671V294.437Z" fill="#22D3EE"/>
<path d="M50.6846 294.437V527.671" stroke="#22D3EE" stroke-width="17" stroke-linecap="round"/>
</g>
<g id="Vector_27">
<path d="M206.224 276.749L249.016 252.973L206.224 276.749Z" fill="#22D3EE"/>
<path d="M206.224 276.749L249.016 252.973" stroke="#22D3EE" stroke-width="17" stroke-linecap="round"/>
</g>
<path id="Vector_28" d="M251.802 431.374L277.229 389.91" stroke="#22D3EE" stroke-width="17"/>
<path id="Vector_29" d="M317.203 343.256C319.882 339.056 318.714 333.438 314.593 330.708C310.472 327.978 304.96 329.169 302.28 333.369L309.742 338.312L317.203 343.256ZM286.31 375.043L293.772 379.987L317.203 343.256L309.742 338.312L302.28 333.369L278.849 370.099L286.31 375.043Z" fill="#22D3EE"/>
<path id="Line 33" d="M97.6006 482.061L309.187 588.312" stroke="#22D3EE" stroke-width="17" stroke-linecap="round"/>
<path id="Line 35" d="M50.8447 528.707L308 590" stroke="#22D3EE" stroke-width="17" stroke-linecap="round"/>
<path id="Vector_30" d="M318.947 418.828C318.947 413.819 314.962 409.758 310.047 409.758C305.132 409.758 301.147 413.819 301.147 418.828H310.047H318.947ZM301.147 499.164V508.235H318.947V499.164H310.047H301.147ZM310.047 418.828H301.147V499.164H310.047H318.947V418.828H310.047Z" fill="#22D3EE"/>
</g>
<g id="Vector_31">
<path d="M462.46 247.707L405.929 271.752L462.46 247.707Z" fill="#22D3EE"/>
<path d="M462.46 247.707L405.929 271.752" stroke="#22D3EE" stroke-width="17" stroke-linecap="round"/>
</g>
<g id="Vector_32">
<path d="M462.478 247.742L462.478 448.965L462.478 247.742Z" fill="#22D3EE"/>
<path d="M462.478 247.742L462.478 448.965" stroke="#22D3EE" stroke-width="17" stroke-linecap="round"/>
</g>
<g id="Vector_33">
<path d="M366.288 485.083L462.476 448.966L366.288 485.083Z" fill="#22D3EE"/>
<path d="M366.288 485.083L462.476 448.966" stroke="#22D3EE" stroke-width="17"/>
</g>
<g id="Vector_34">
<path d="M563.729 294.179V526.359V294.179Z" fill="#22D3EE"/>
<path d="M563.729 294.179V526.359" stroke="#22D3EE" stroke-width="17" stroke-linecap="round"/>
</g>
<g id="Vector_35">
<path d="M518.166 237.423V485.082V237.423Z" fill="#22D3EE"/>
<path d="M518.166 237.423V485.082" stroke="#22D3EE" stroke-width="17" stroke-linecap="round"/>
</g>
<g id="Vector_36">
<path d="M366.473 251.022L401.731 273.54L366.473 251.022Z" fill="#22D3EE"/>
<path d="M366.473 251.022L401.731 273.54" stroke="#22D3EE" stroke-width="17" stroke-linecap="round"/>
</g>
<g id="Vector_37">
<path d="M367.579 430.233L342.46 389.168L367.579 430.233Z" fill="#22D3EE"/>
<path d="M367.579 430.233L342.46 389.168" stroke="#22D3EE" stroke-width="17"/>
</g>
<path id="Vector_38" d="M318.792 331.812C316.259 327.545 310.811 326.18 306.625 328.762C302.439 331.344 301.099 336.895 303.633 341.161L311.212 336.486L318.792 331.812ZM334.572 375.827L342.152 371.152L318.792 331.812L311.212 336.486L303.633 341.161L326.992 380.501L334.572 375.827Z" fill="#22D3EE"/>
<path id="Line 34" d="M310.759 587.21L518.323 486.114" stroke="#22D3EE" stroke-width="17" stroke-linecap="round"/>
<path id="Line 38" d="M310.435 592.055L563.176 527" stroke="#22D3EE" stroke-width="17" stroke-linecap="round"/>
<path id="Vector 3" d="M34.5 468.5C34.5 468.5 37.9288 474.669 40.587 478.306C43.3834 482.133 48.5 487.5 48.5 487.5" stroke="#22D3EE" stroke-width="13"/>
</g>
</g>
</svg>