<svg width="653" height="680" viewBox="0 0 653 680" fill="none" xmlns="http://www.w3.org/2000/svg">
<ellipse cx="326.5" cy="340" rx="326.5" ry="340" fill="black"/>
<path d="M367.35 188.041C369.337 187.365 371.229 189.293 370.566 191.319L365.404 207.109C364.205 210.779 365.834 214.789 369.228 216.519L383.837 223.963C385.711 224.918 385.711 227.646 383.837 228.602L369.228 236.046C365.834 237.776 364.205 241.785 365.404 245.455L370.566 261.246C371.229 263.272 369.337 265.199 367.35 264.524L351.856 259.263C348.255 258.041 344.322 259.701 342.624 263.161L335.319 278.049C334.382 279.959 331.705 279.959 330.768 278.049L323.464 263.161C321.766 259.701 317.832 258.041 314.232 259.263L298.738 264.524C296.75 265.199 294.858 263.272 295.521 261.246L300.683 245.455C301.883 241.785 300.254 237.776 296.859 236.046L282.25 228.602C280.376 227.646 280.376 224.918 282.25 223.963L296.859 216.519C300.254 214.789 301.883 210.779 300.683 207.109L295.521 191.319C294.858 189.293 296.75 187.365 298.738 188.041L314.232 193.301C317.832 194.524 321.766 192.863 323.464 189.404L330.768 174.515C331.705 172.606 334.382 172.606 335.319 174.515L342.624 189.404C344.322 192.863 348.255 194.524 351.856 193.301L367.35 188.041Z" fill="#22D3EE"/>
<path d="M333.202 94.1166V158.904" stroke="#22D3EE" stroke-width="7" stroke-linecap="round"/>
<path d="M394.07 112.257L358.471 169.27" stroke="#22D3EE" stroke-width="7" stroke-linecap="round"/>
<path d="M439.6 158.904L383.899 190.126" stroke="#22D3EE" stroke-width="7" stroke-linecap="round"/>
<path d="M465.268 221.1H399.156" stroke="#22D3EE" stroke-width="7" stroke-linecap="round"/>
<path d="M277.103 335.126L303.407 276.146" stroke="#22D3EE" stroke-width="7" stroke-linecap="round"/>
<path d="M205.906 221.1H269.475" stroke="#22D3EE" stroke-width="7" stroke-linecap="round"/>
<path d="M272.018 112.257L302.457 169.134" stroke="#22D3EE" stroke-width="7" stroke-linecap="round"/>
<path d="M226.25 158.904L280.76 192.237" stroke="#22D3EE" stroke-width="7" stroke-linecap="round"/>
<path d="M389.865 337.093L363.561 278.113" stroke="#22D3EE" stroke-width="7" stroke-linecap="round"/>
<path d="M305.492 22.3885C332.626 20.5176 359.207 21.9069 383.96 26.4608C389.741 27.5243 392.265 34.4331 388.694 39.2723C386.751 41.9069 383.468 43.1156 380.295 42.4471C356.434 37.419 330.507 35.7658 303.997 37.5936C275.428 39.5635 246.833 45.5316 220.116 55.1014C193.4 64.6712 169.168 77.6254 149.038 93.1053C131.145 106.866 116.851 122.346 106.896 138.724C104.772 142.221 100.905 144.245 96.9453 143.709L95.501 143.514C88.7675 142.602 85.1098 135.125 88.9229 129.461C99.7416 113.39 114.347 98.1736 132.17 84.4677C154.663 67.1705 181.755 52.6835 211.645 41.9764C241.534 31.2701 273.528 24.5925 305.492 22.3885Z" fill="#22D3EE" stroke="black"/>
<path d="M209.507 93.8373C213.431 92.1294 217.953 94.0338 219.658 98.058C221.438 102.259 219.449 107.123 215.323 108.936C182.594 123.318 152.971 143.708 128.085 169.022C101.172 196.397 80.3861 228.933 67.0469 264.565C53.7077 300.196 48.1068 338.145 50.6006 376.001C52.8948 410.827 61.9931 444.875 77.375 476.32C79.4546 480.571 77.8364 485.766 73.6934 487.863C69.7529 489.857 64.9654 488.319 62.9883 484.32C46.3818 450.729 36.5664 414.3 34.1113 377.032C31.4712 336.953 37.4006 296.775 51.5234 259.05C65.6463 221.325 87.6541 186.876 116.151 157.889C142.75 130.834 174.46 109.089 209.507 93.8373Z" fill="#22D3EE" stroke="black"/>
<path d="M118.142 541.553C141.149 565.239 169.008 584.908 200.267 599.53L192.284 612.807C159.099 597.3 129.528 576.441 105.111 551.321L118.142 541.553Z" fill="#22D3EE" stroke="black"/>
<path d="M301.111 64.9822C352.381 59.9313 404.15 67.9744 451.307 88.3884C501.042 109.919 543.732 144.38 574.716 188.006C605.215 230.95 623.208 281.148 626.823 333.272L626.984 335.757C630.02 385.966 619.603 436.053 596.829 481.108C594.821 485.081 590.03 486.576 586.113 484.555C581.987 482.427 580.41 477.218 582.527 472.987C603.676 430.7 613.336 383.772 610.488 336.729C607.462 286.656 590.383 238.38 561.123 197.177C531.86 155.975 491.543 123.43 444.576 103.098C400.149 83.8659 351.388 76.2613 303.084 80.9626C298.769 81.3824 294.839 78.3068 294.263 73.9255C293.677 69.4744 296.766 65.4106 301.111 64.9822Z" fill="#22D3EE" stroke="black"/>
<path d="M499.535 596.691C460.433 623.096 415.401 639.954 368.225 645.852C321.046 651.746 273.109 646.494 228.446 630.551L234.142 615.444C276.314 630.497 321.577 635.452 366.124 629.885C410.671 624.319 453.193 608.396 490.119 583.465L499.535 596.691Z" fill="#22D3EE" stroke="black"/>
<path d="M399.157 56.2809C408.987 56.2809 416.956 48.1591 416.956 38.1404C416.956 28.1218 408.987 20 399.157 20C389.326 20 381.357 28.1218 381.357 38.1404C381.357 48.1591 389.326 56.2809 399.157 56.2809Z" fill="#22D3EE"/>
<path d="M88.94 159.94C98.7703 159.94 106.739 151.819 106.739 141.8C106.739 131.781 98.7703 123.659 88.94 123.659C79.1097 123.659 71.1406 131.781 71.1406 141.8C71.1406 151.819 79.1097 159.94 88.94 159.94Z" fill="#22D3EE"/>
<path d="M73.8433 247.015C83.6736 247.015 91.6426 238.893 91.6426 228.874C91.6426 218.856 83.6736 210.734 73.8433 210.734C64.013 210.734 56.0439 218.856 56.0439 228.874C56.0439 238.893 64.013 247.015 73.8433 247.015Z" fill="#22D3EE"/>
<path d="M506.114 148.538C515.944 148.538 523.913 140.416 523.913 130.398C523.913 120.379 515.944 112.257 506.114 112.257C496.283 112.257 488.314 120.379 488.314 130.398C488.314 140.416 496.283 148.538 506.114 148.538Z" fill="#22D3EE"/>
<path d="M490.697 615.007C500.527 615.007 508.496 606.885 508.496 596.867C508.496 586.848 500.527 578.726 490.697 578.726C480.866 578.726 472.897 586.848 472.897 596.867C472.897 606.885 480.866 615.007 490.697 615.007Z" fill="#22D3EE"/>
<path d="M226.249 280.704L175.394 254.789" stroke="#22D3EE" stroke-width="7" stroke-linecap="round"/>
<path d="M119.612 245.46L119.611 489.06" stroke="#22D3EE" stroke-width="7" stroke-linecap="round"/>
<path d="M175.394 254.789L175.394 456.926" stroke="#22D3EE" stroke-width="7" stroke-linecap="round"/>
<path d="M333.047 425.828L256.764 493.207" stroke="#22D3EE" stroke-width="7" stroke-linecap="round"/>
<path d="M175.394 456.926L256.761 493.207" stroke="#22D3EE" stroke-width="7" stroke-linecap="round"/>
<path d="M73.6846 301.436V534.671" stroke="#22D3EE" stroke-width="7" stroke-linecap="round"/>
<path d="M229.224 283.749L272.016 259.973" stroke="#22D3EE" stroke-width="7" stroke-linecap="round"/>
<path d="M274.802 438.374L300.229 396.91" stroke="#22D3EE" stroke-width="7"/>
<path d="M340.203 350.256C342.882 346.056 341.714 340.438 337.593 337.708C333.472 334.977 327.96 336.169 325.28 340.368L332.742 345.312L340.203 350.256ZM309.31 382.043L316.772 386.987L340.203 350.256L332.742 345.312L325.28 340.368L301.849 377.099L309.31 382.043Z" fill="#22D3EE"/>
<path d="M120.601 489.06L332.187 595.312" stroke="#22D3EE" stroke-width="7" stroke-linecap="round"/>
<path d="M73.8447 535.707L331 597" stroke="#22D3EE" stroke-width="7" stroke-linecap="round"/>
<path d="M341.947 425.828C341.947 420.819 337.962 416.758 333.047 416.758C328.132 416.758 324.147 420.819 324.147 425.828H333.047H341.947ZM324.147 506.164V515.235H341.947V506.164H333.047H324.147ZM333.047 425.828H324.147V506.164H333.047H341.947V425.828H333.047Z" fill="#22D3EE"/>
<path d="M485.46 254.707L428.929 278.752" stroke="#22D3EE" stroke-width="7" stroke-linecap="round"/>
<path d="M485.478 254.742L485.478 455.965" stroke="#22D3EE" stroke-width="7" stroke-linecap="round"/>
<path d="M389.288 492.083L485.476 455.966" stroke="#22D3EE" stroke-width="7"/>
<path d="M586.729 301.179V533.359" stroke="#22D3EE" stroke-width="7" stroke-linecap="round"/>
<path d="M541.166 244.423V492.082" stroke="#22D3EE" stroke-width="7" stroke-linecap="round"/>
<path d="M389.473 258.023L424.731 280.541" stroke="#22D3EE" stroke-width="7" stroke-linecap="round"/>
<path d="M390.579 437.233L365.46 396.169" stroke="#22D3EE" stroke-width="7"/>
<path d="M341.792 338.812C339.259 334.546 333.811 333.18 329.625 335.762C325.439 338.344 324.099 343.895 326.633 348.162L334.212 343.486L341.792 338.812ZM357.572 382.827L365.152 378.152L341.792 338.812L334.212 343.486L326.633 348.162L349.992 387.502L357.572 382.827Z" fill="#22D3EE"/>
<path d="M333.759 594.21L541.323 493.114" stroke="#22D3EE" stroke-width="7" stroke-linecap="round"/>
<path d="M333.435 599.055L586.176 534" stroke="#22D3EE" stroke-width="7" stroke-linecap="round"/>
</svg>
